<svg width="365" height="297" viewBox="0 0 365 297" fill="none" xmlns="http://www.w3.org/2000/svg">
<circle cx="291.6" cy="228.15" r="18.9" fill="#1C1B1B"/>
<circle cx="237.6" cy="228.15" r="18.9" fill="#1C1B1B"/>
<circle cx="237.6" cy="175.5" r="18.9" fill="#1C1B1B"/>
<circle cx="182.25" cy="228.15" r="18.9" fill="#1C1B1B"/>
<circle cx="126.9" cy="71.5499" r="18.9" fill="#1C1B1B"/>
<circle cx="182.25" cy="71.5499" r="18.9" fill="#1C1B1B"/>
<circle cx="237.6" cy="71.5499" r="18.9" fill="#1C1B1B"/>
<circle cx="72.9" cy="71.5499" r="18.9" fill="#1C1B1B"/>
<circle cx="345.6" cy="71.5499" r="18.9" fill="#1C1B1B"/>
<circle cx="291.6" cy="71.5499" r="18.9" fill="#1C1B1B"/>
<circle cx="345.6" cy="18.9" r="18.9" fill="#1C1B1B"/>
<circle cx="18.9" cy="71.5499" r="18.9" fill="#1C1B1B"/>
<circle cx="18.9" cy="124.2" r="18.9" fill="#1C1B1B"/>
<circle cx="72.9" cy="124.2" r="18.9" fill="#1C1B1B"/>
<circle cx="345.6" cy="124.2" r="18.9" fill="#1C1B1B"/>
<circle cx="291.6" cy="124.2" r="18.9" fill="#1C1B1B"/>
<circle cx="18.9" cy="175.5" r="18.9" fill="#1C1B1B"/>
<circle cx="18.9" cy="226.8" r="18.9" fill="#1C1B1B"/>
<circle cx="18.9" cy="278.1" r="18.9" fill="#1C1B1B"/>
<circle cx="72.9" cy="278.1" r="18.9" fill="#1C1B1B"/>
<circle cx="126.9" cy="124.2" r="18.9" fill="#1C1B1B"/>
<circle cx="182.25" cy="124.2" r="18.9" fill="#1C1B1B"/>
<circle cx="126.9" cy="175.5" r="18.9" fill="#1C1B1B"/>
<circle cx="182.25" cy="175.5" r="18.9" fill="#1C1B1B"/>
<circle cx="126.9" cy="228.15" r="18.9" fill="#1C1B1B"/>
<circle cx="72.9" cy="175.5" r="18.9" fill="#1C1B1B"/>
<circle cx="345.6" cy="175.5" r="18.9" fill="#1C1B1B"/>
<circle cx="291.6" cy="175.5" r="18.9" fill="#1C1B1B"/>
<circle cx="72.9" cy="228.15" r="18.9" fill="#1C1B1B"/>
<circle cx="345.6" cy="228.15" r="18.9" fill="#1C1B1B"/>
<path d="M237.82 146.362C250.08 146.362 260.018 136.424 260.018 124.165C260.018 111.906 250.08 101.968 237.82 101.968C225.561 101.968 215.623 111.906 215.623 124.165C215.623 136.424 225.561 146.362 237.82 146.362Z" fill="#A70804"/>
<path d="M257.579 154.435C260.082 154.435 262.11 152.407 262.11 149.904C262.11 147.402 260.082 145.374 257.579 145.374C255.077 145.374 253.049 147.402 253.049 149.904C253.049 152.407 255.077 154.435 257.579 154.435Z" fill="white"/>
<path d="M197.261 128.713C199.763 128.713 201.791 126.684 201.791 124.182C201.791 121.68 199.763 119.651 197.261 119.651C194.758 119.651 192.73 121.68 192.73 124.182C192.73 126.684 194.758 128.713 197.261 128.713Z" fill="white"/>
<path d="M237.774 80.6114C240.276 80.6114 242.304 78.583 242.304 76.0809C242.304 73.5787 240.276 71.5503 237.774 71.5503C235.272 71.5503 233.243 73.5787 233.243 76.0809C233.243 78.583 235.272 80.6114 237.774 80.6114Z" fill="white"/>
<path fill-rule="evenodd" clip-rule="evenodd" d="M260.899 101.003L261.042 101.145C273.753 113.856 273.753 134.495 261.042 147.206L260.95 147.298L260.302 146.65L260.395 146.558C272.748 134.205 272.748 114.146 260.395 101.793L260.251 101.651L260.899 101.003Z" fill="white" stroke="white"/>
<path fill-rule="evenodd" clip-rule="evenodd" d="M237.776 165.43L237.612 165.43C214.97 165.43 196.588 147.048 196.588 124.407L196.589 124.153H197.488L197.487 124.407C197.487 146.411 215.607 164.531 237.612 164.531L237.775 164.531H237.776L237.94 164.531C259.945 164.531 278.065 146.411 278.065 124.407L278.064 124.153H278.963L278.964 124.407C278.964 147.048 260.582 165.43 237.94 165.43L237.776 165.43Z" fill="white" stroke="white"/>
<path fill-rule="evenodd" clip-rule="evenodd" d="M189.001 124.146L189 123.952C189 97.196 210.722 75.4736 237.478 75.4736L237.778 75.4744V76.3704L237.478 76.3694C211.475 76.3694 189.896 97.9485 189.896 123.952L189.897 124.136V124.146L189.896 124.34C189.896 150.343 211.475 171.922 237.478 171.922L237.778 171.921V172.817L237.478 172.818C210.722 172.818 189 151.096 189 124.34L189.001 124.146Z" fill="white" stroke="white"/>
</svg>
