<svg width="91" height="31" viewBox="0 0 91 31" fill="none" xmlns="http://www.w3.org/2000/svg">
<path d="M15.4447 22.1543C19.0757 22.1543 22.0193 19.2107 22.0193 15.5797C22.0193 11.9487 19.0757 9.00513 15.4447 9.00513C11.8137 9.00513 8.87012 11.9487 8.87012 15.5797C8.87012 19.2107 11.8137 22.1543 15.4447 22.1543Z" fill="#B00603"/>
<path d="M21.3233 24.5582C22.0644 24.5582 22.6652 23.9574 22.6652 23.2163C22.6652 22.4752 22.0644 21.8744 21.3233 21.8744C20.5822 21.8744 19.9814 22.4752 19.9814 23.2163C19.9814 23.9574 20.5822 24.5582 21.3233 24.5582Z" fill="#1A1413"/>
<path d="M3.4664 16.9283C4.20751 16.9283 4.8083 16.3275 4.8083 15.5864C4.8083 14.8453 4.20751 14.2445 3.4664 14.2445C2.7253 14.2445 2.12451 14.8453 2.12451 15.5864C2.12451 16.3275 2.7253 16.9283 3.4664 16.9283Z" fill="#1A1413"/>
<path d="M15.4513 2.68378C16.1924 2.68378 16.7932 2.083 16.7932 1.34189C16.7932 0.600785 16.1924 0 15.4513 0C14.7102 0 14.1094 0.600785 14.1094 1.34189C14.1094 2.083 14.7102 2.68378 15.4513 2.68378Z" fill="#1A1413"/>
<path fill-rule="evenodd" clip-rule="evenodd" d="M22.2914 8.72107L22.3338 8.76314C26.0986 12.528 26.0986 18.6409 22.3338 22.4058L22.3064 22.433L22.1146 22.2411L22.142 22.2139C25.8008 18.555 25.8008 12.6139 22.142 8.95496L22.0996 8.9129L22.2914 8.72107Z" fill="#1A1413" stroke="#1A1413" stroke-width="0.3"/>
<path fill-rule="evenodd" clip-rule="evenodd" d="M15.4477 27.8128L15.3991 27.813C8.69306 27.813 3.24854 22.3684 3.24854 15.6623L3.24876 15.5872H3.51498L3.51475 15.6623C3.51475 22.1799 8.88165 27.5468 15.3991 27.5468L15.4475 27.5466H15.4478L15.4964 27.5468C22.0139 27.5468 27.3808 22.1799 27.3808 15.6623L27.3806 15.5872H27.6468L27.647 15.6623C27.647 22.3684 22.2025 27.813 15.4964 27.813L15.4477 27.8128Z" fill="#1A1413" stroke="#1A1413" stroke-width="0.3"/>
<path fill-rule="evenodd" clip-rule="evenodd" d="M1.00015 15.5839L1 15.5264C1 7.60173 7.43388 1.16785 15.3586 1.16785L15.4475 1.16807V1.43346L15.3586 1.43316C7.65675 1.43316 1.26539 7.8246 1.26539 15.5264L1.26554 15.581V15.5839L1.26539 15.6414C1.26539 23.3432 7.65675 29.7347 15.3586 29.7347L15.4475 29.7344V29.9997L15.3586 30C7.43388 30 1 23.5661 1 15.6414L1.00015 15.5839Z" fill="#1A1413" stroke="#1A1413" stroke-width="0.3"/>
<path d="M36.0731 21.3865C35.9562 21.3865 35.8539 21.3427 35.7663 21.255C35.6786 21.1674 35.6348 21.0651 35.6348 20.9482V19.4929C35.6348 19.2825 35.7224 19.0896 35.8977 18.9142L39.9481 14.6184H36.2133C36.0965 14.6184 35.9942 14.5745 35.9065 14.4868C35.8189 14.3992 35.775 14.2969 35.775 14.18V12.7071C35.775 12.5786 35.8189 12.4734 35.9065 12.3915C35.9942 12.3097 36.0965 12.2688 36.2133 12.2688H43.3497C43.4784 12.2688 43.5836 12.3097 43.6654 12.3915C43.7472 12.4734 43.7881 12.5786 43.7881 12.7071V14.2852C43.7881 14.4722 43.7063 14.6476 43.5426 14.8113L39.615 19.0369H43.718C43.8465 19.0369 43.9517 19.0779 44.0336 19.1597C44.1154 19.2415 44.1563 19.3467 44.1563 19.4753V20.9482C44.1563 21.0651 44.1154 21.1674 44.0336 21.255C43.9517 21.3427 43.8465 21.3865 43.718 21.3865H36.0731Z" fill="#1A1413"/>
<path d="M49.924 21.5628C48.4979 21.5628 47.3757 21.1799 46.5574 20.4143C45.7391 19.6486 45.3183 18.5352 45.2949 17.074V16.5304C45.3417 15.1394 45.7742 14.0523 46.5925 13.2691C47.4107 12.4859 48.5154 12.0943 49.9064 12.0943C50.9117 12.0943 51.7621 12.2959 52.4576 12.6992C53.1532 13.1025 53.6733 13.6578 54.0181 14.365C54.363 15.0722 54.5354 15.8759 54.5354 16.776V17.2143C54.5354 17.3428 54.4916 17.451 54.4039 17.5387C54.3162 17.6264 54.2081 17.6702 54.0795 17.6702H48.5212V17.7754C48.5329 18.3014 48.6556 18.7251 48.8894 19.0466C49.1232 19.3681 49.4564 19.5288 49.8888 19.5288C50.1694 19.5288 50.3945 19.4733 50.5639 19.3622C50.7334 19.2512 50.8941 19.108 51.0461 18.9326C51.1514 18.8158 51.2361 18.7427 51.3004 18.7134C51.3646 18.6842 51.467 18.6696 51.6072 18.6696H53.9042C54.0094 18.6696 54.1 18.7017 54.176 18.7661C54.252 18.8303 54.2899 18.9093 54.2899 19.0028C54.2899 19.3067 54.1175 19.6632 53.7727 20.0723C53.4278 20.4815 52.9252 20.8322 52.2647 21.1244C51.6043 21.4166 50.824 21.5628 49.924 21.5628ZM51.3091 15.8817V15.8467C51.3091 15.2855 51.1864 14.8501 50.941 14.5403C50.6954 14.2305 50.3506 14.0756 49.9064 14.0756C49.4622 14.0756 49.1203 14.2305 48.8807 14.5403C48.641 14.8501 48.5212 15.2855 48.5212 15.8467V15.8817H51.3091Z" fill="#1A1413"/>
<path d="M56.5502 21.3874C56.4333 21.3874 56.3311 21.3436 56.2434 21.2559C56.1557 21.1682 56.1118 21.066 56.1118 20.9491V12.708C56.1118 12.5795 56.1557 12.4743 56.2434 12.3924C56.3311 12.3106 56.4333 12.2697 56.5502 12.2697H58.7069C58.8355 12.2697 58.9407 12.3106 59.0226 12.3924C59.1043 12.4743 59.1453 12.5795 59.1453 12.708V13.3743C59.4609 12.9886 59.867 12.6788 60.3639 12.445C60.8607 12.2112 61.4305 12.0943 62.0735 12.0943C62.7397 12.0943 63.333 12.2463 63.8532 12.5502C64.3734 12.8541 64.7825 13.3042 65.0806 13.9004C65.3786 14.4965 65.5277 15.2154 65.5277 16.0571V20.9491C65.5277 21.066 65.4868 21.1682 65.4049 21.2559C65.3231 21.3436 65.2179 21.3874 65.0893 21.3874H62.7573C62.6287 21.3874 62.5206 21.3465 62.4329 21.2647C62.3453 21.1828 62.3014 21.0776 62.3014 20.9491V16.1623C62.3014 15.6363 62.1757 15.233 61.9245 14.9524C61.6731 14.6718 61.3078 14.5316 60.8285 14.5316C60.361 14.5316 59.9927 14.6748 59.7239 14.9612C59.455 15.2475 59.3206 15.6479 59.3206 16.1623V20.9491C59.3206 21.066 59.2797 21.1682 59.1978 21.2559C59.116 21.3436 59.0108 21.3874 58.8822 21.3874H56.5502Z" fill="#1A1413"/>
<path d="M67.8807 11.002C67.7521 11.002 67.6469 10.9581 67.5651 10.8705C67.4833 10.7828 67.4424 10.6747 67.4424 10.5461V8.91544C67.4424 8.78682 67.4862 8.67867 67.5739 8.59106C67.6616 8.50338 67.7638 8.4595 67.8807 8.4595H70.0725C70.2011 8.4595 70.3092 8.50338 70.3968 8.59106C70.4845 8.67867 70.5284 8.78682 70.5284 8.91544V10.5461C70.5284 10.6747 70.4845 10.7828 70.3968 10.8705C70.3092 10.9581 70.2011 11.002 70.0725 11.002H67.8807ZM67.8807 21.3822C67.7638 21.3822 67.6616 21.3384 67.5739 21.2507C67.4862 21.163 67.4424 21.0607 67.4424 20.9438V12.7028C67.4424 12.5742 67.4862 12.469 67.5739 12.3872C67.6616 12.3054 67.7638 12.2644 67.8807 12.2644H70.0725C70.2011 12.2644 70.3092 12.3054 70.3968 12.3872C70.4845 12.469 70.5284 12.5742 70.5284 12.7028V20.9438C70.5284 21.0724 70.4845 21.1776 70.3968 21.2594C70.3092 21.3412 70.2011 21.3822 70.0725 21.3822H67.8807Z" fill="#1A1413"/>
<path d="M77.3166 21.3781C74.8385 21.3781 73.5994 20.215 73.5994 17.8888V14.645H72.2142C72.0973 14.645 71.995 14.6012 71.9074 14.5135C71.8197 14.4259 71.7759 14.3236 71.7759 14.2067V12.6987C71.7759 12.5702 71.8197 12.465 71.9074 12.3831C71.995 12.3013 72.0973 12.2604 72.2142 12.2604H73.5994V9.36725C73.5994 9.2387 73.6433 9.1335 73.7309 9.05163C73.8185 8.96984 73.9209 8.92891 74.0377 8.92891H76.1944C76.323 8.92891 76.4282 8.96984 76.51 9.05163C76.5919 9.1335 76.6328 9.2387 76.6328 9.36725V12.2604H78.8246C78.9531 12.2604 79.0613 12.3013 79.149 12.3831C79.2366 12.465 79.2805 12.5702 79.2805 12.6987V14.2067C79.2805 14.3352 79.2366 14.4404 79.149 14.5223C79.0613 14.6041 78.9531 14.645 78.8246 14.645H76.6328V17.6258C76.6328 18.0349 76.7088 18.3447 76.8608 18.5552C77.0127 18.7656 77.2582 18.8708 77.5972 18.8708H78.9824C79.111 18.8708 79.2162 18.9146 79.298 19.0022C79.3798 19.0899 79.4207 19.1981 79.4207 19.3266V20.9398C79.4207 21.0567 79.3798 21.159 79.298 21.2466C79.2162 21.3343 79.111 21.3781 78.9824 21.3781H77.3166Z" fill="#1A1413"/>
<path d="M81.2919 21.3781C81.1633 21.3781 81.0551 21.3372 80.9674 21.2554C80.8798 21.1735 80.8359 21.0683 80.8359 20.9398V9.36725C80.8359 9.2387 80.8798 9.1335 80.9674 9.05163C81.0551 8.96984 81.1633 8.92891 81.2919 8.92891H83.6589C83.7875 8.92891 83.8957 8.96984 83.9833 9.05163C84.071 9.1335 84.1148 9.2387 84.1148 9.36725V13.2774C84.7928 12.4825 85.7104 12.085 86.8677 12.085C87.534 12.085 88.136 12.237 88.6737 12.5409C89.2114 12.8449 89.6323 13.2949 89.9362 13.8911C90.2401 14.4873 90.392 15.2061 90.392 16.0478V20.9398C90.392 21.0683 90.3482 21.1735 90.2605 21.2554C90.1728 21.3372 90.0648 21.3781 89.9362 21.3781H87.5515C87.4346 21.3781 87.3324 21.3343 87.2447 21.2466C87.157 21.159 87.1132 21.0567 87.1132 20.9398V16.153C87.1132 15.6386 86.9846 15.2383 86.7274 14.9519C86.4703 14.6655 86.102 14.5223 85.6227 14.5223C85.1552 14.5223 84.787 14.6655 84.5181 14.9519C84.2493 15.2383 84.1148 15.6386 84.1148 16.153V20.9398C84.1148 21.0683 84.071 21.1735 83.9833 21.2554C83.8957 21.3372 83.7875 21.3781 83.6589 21.3781H81.2919Z" fill="#1A1413"/>
</svg>
