<svg width="476" height="124" viewBox="0 0 476 124" fill="none" xmlns="http://www.w3.org/2000/svg">
<path d="M60.1508 90.642C75.0042 90.642 87.0453 78.6009 87.0453 63.7475C87.0453 48.8941 75.0042 36.853 60.1508 36.853C45.2974 36.853 33.2563 48.8941 33.2563 63.7475C33.2563 78.6009 45.2974 90.642 60.1508 90.642Z" fill="#B00603"/>
<path d="M84.0913 100.423C87.1229 100.423 89.5805 97.9657 89.5805 94.9341C89.5805 91.9024 87.1229 89.4448 84.0913 89.4448C81.0597 89.4448 78.6021 91.9024 78.6021 94.9341C78.6021 97.9657 81.0597 100.423 84.0913 100.423Z" fill="black"/>
<path d="M11.0083 69.2578C14.0399 69.2578 16.4975 66.8002 16.4975 63.7685C16.4975 60.7369 14.0399 58.2793 11.0083 58.2793C7.97666 58.2793 5.51904 60.7369 5.51904 63.7685C5.51904 66.8002 7.97666 69.2578 11.0083 69.2578Z" fill="black"/>
<path d="M60.0942 10.9785C63.1258 10.9785 65.5834 8.52087 65.5834 5.48924C65.5834 2.45762 63.1258 0 60.0942 0C57.0626 0 54.605 2.45762 54.605 5.48924C54.605 8.52087 57.0626 10.9785 60.0942 10.9785Z" fill="black"/>
<path d="M0.499998 63.4892L0.500002 63.4905L0.50062 63.723V63.7256L0.5 63.9581V63.9594C0.5 96.653 27.0428 123.196 59.7363 123.196H59.7376L60.1012 123.195L60.5999 123.193V122.695V121.609V121.107L60.0982 121.109L59.7363 121.11C59.7357 121.11 59.7352 121.11 59.7346 121.11C28.506 121.109 2.58599 95.1888 2.58562 63.9601C2.58562 63.9599 2.58562 63.9596 2.58562 63.9594L2.58623 63.7256V63.7243L2.58623 63.7123L2.58623 63.7109L2.58562 63.4892C2.58562 63.489 2.58562 63.4888 2.58562 63.4885C2.586 32.2596 28.5065 6.33871 59.7354 6.33824C59.7357 6.33824 59.736 6.33824 59.7363 6.33824L60.0982 6.33947L60.5999 6.34117V5.83947V4.75386V4.25513L60.1012 4.25386L59.7376 4.25293H59.7363C27.0428 4.25293 0.5 30.7957 0.499998 63.4892ZM88.4656 35.3298L88.1121 34.9787L87.7598 35.331L86.9751 36.1157L86.6202 36.4705L86.9763 36.8241L87.1484 36.9949C87.1488 36.9953 87.1492 36.9958 87.1496 36.9962C101.92 51.768 101.92 75.7525 87.1499 90.5244C87.1494 90.5249 87.1489 90.5254 87.1484 90.5259L87.0377 90.6357L86.6812 90.9892L87.0362 91.3442L87.8209 92.1289L88.173 92.481L88.5266 92.1304L88.6387 92.0192L88.6402 92.0177C104.236 76.4218 104.236 51.099 88.6402 35.5031L88.6389 35.5018L88.4656 35.3298ZM59.898 114.245H59.8995L60.0951 114.245H60.0982L60.2943 114.245H60.2959C88.0047 114.245 110.5 91.7496 110.5 64.0408V64.0393L110.499 63.7319L110.498 63.2334H109.999H108.91H108.409L108.41 63.7349L108.411 64.0408C108.411 64.0413 108.411 64.0418 108.411 64.0423C108.41 90.4262 86.681 112.155 60.2974 112.156C60.2969 112.156 60.2964 112.156 60.2959 112.156L60.0975 112.156L60.0945 112.156L59.898 112.156C59.8975 112.156 59.8969 112.156 59.8964 112.156C33.5126 112.155 11.7833 90.4258 11.7829 64.0417C11.7829 64.0414 11.7829 64.0411 11.7829 64.0408L11.7838 63.7349L11.7853 63.2334H11.2838H10.1948H9.69628L9.69478 63.7319L9.69385 64.0393V64.0408C9.69385 91.7496 32.1895 114.245 59.898 114.245Z" fill="black" stroke="black"/>
<path d="M135.801 90.1025C135.32 90.1025 134.9 89.9225 134.54 89.5623C134.18 89.2021 134 88.7821 134 88.3018V82.3235C134 81.4592 134.36 80.6669 135.08 79.9465L151.719 62.2998H136.377C135.897 62.2998 135.476 62.1195 135.116 61.7594C134.756 61.3995 134.576 60.9791 134.576 60.4989V54.4486C134.576 53.9205 134.756 53.4884 135.116 53.1521C135.476 52.8161 135.897 52.6479 136.377 52.6479H165.692C166.22 52.6479 166.653 52.8161 166.989 53.1521C167.325 53.4884 167.493 53.9205 167.493 54.4486V60.931C167.493 61.6995 167.157 62.4199 166.484 63.0921L150.35 80.4506H167.205C167.733 80.4506 168.165 80.6188 168.501 80.9551C168.837 81.2911 169.005 81.7232 169.005 82.2516V88.3018C169.005 88.7821 168.837 89.2021 168.501 89.5623C168.165 89.9225 167.733 90.1025 167.205 90.1025H135.801Z" fill="black"/>
<path d="M192.762 90.8391C186.904 90.8391 182.294 89.2665 178.933 86.1213C175.571 82.9761 173.843 78.4022 173.747 72.3997V70.167C173.939 64.4527 175.715 59.9871 179.077 56.7699C182.438 53.5524 186.976 51.9438 192.69 51.9438C196.82 51.9438 200.313 52.7722 203.17 54.4289C206.027 56.0855 208.164 58.3664 209.58 61.2715C210.997 64.1766 211.705 67.4781 211.705 71.1755V72.9762C211.705 73.5042 211.525 73.9485 211.165 74.3086C210.805 74.6688 210.361 74.8488 209.833 74.8488H187V75.2809C187.048 77.4417 187.552 79.1825 188.512 80.5029C189.473 81.8235 190.841 82.4837 192.618 82.4837C193.77 82.4837 194.695 82.2557 195.391 81.7993C196.087 81.3433 196.747 80.7551 197.372 80.0347C197.804 79.5548 198.152 79.2545 198.416 79.1344C198.68 79.0143 199.101 78.9545 199.677 78.9545H209.112C209.544 78.9545 209.917 79.0863 210.229 79.3506C210.541 79.6147 210.697 79.9388 210.697 80.3229C210.697 81.5713 209.989 83.036 208.572 84.7165C207.156 86.3974 205.091 87.8378 202.378 89.0381C199.665 90.2388 196.459 90.8391 192.762 90.8391ZM198.452 67.502V67.3581C198.452 65.053 197.948 63.2645 196.94 61.9919C195.931 60.7193 194.515 60.083 192.69 60.083C190.865 60.083 189.461 60.7193 188.476 61.9919C187.492 63.2645 187 65.053 187 67.3581V67.502H198.452Z" fill="black"/>
<path d="M219.988 90.1187C219.508 90.1187 219.088 89.9388 218.728 89.5786C218.368 89.2184 218.188 88.7983 218.188 88.3181V54.4648C218.188 53.9368 218.368 53.5047 218.728 53.1684C219.088 52.8324 219.508 52.6642 219.988 52.6642H228.848C229.376 52.6642 229.808 52.8324 230.144 53.1684C230.48 53.5047 230.649 53.9368 230.649 54.4648V57.2021C231.945 55.6174 233.614 54.3448 235.655 53.3846C237.695 52.4241 240.036 51.9438 242.677 51.9438C245.414 51.9438 247.851 52.568 249.988 53.8168C252.125 55.0652 253.805 56.9139 255.03 59.3629C256.254 61.8119 256.867 64.7648 256.867 68.2224V88.3181C256.867 88.7983 256.699 89.2184 256.362 89.5786C256.026 89.9388 255.594 90.1187 255.066 90.1187H245.486C244.958 90.1187 244.514 89.9506 244.154 89.6146C243.794 89.2783 243.613 88.8461 243.613 88.3181V68.6545C243.613 66.4937 243.097 64.8371 242.065 63.6845C241.033 62.532 239.532 61.9559 237.563 61.9559C235.642 61.9559 234.13 62.5441 233.025 63.7205C231.921 64.8969 231.369 66.5415 231.369 68.6545V88.3181C231.369 88.7983 231.201 89.2184 230.864 89.5786C230.528 89.9388 230.096 90.1187 229.568 90.1187H219.988Z" fill="black"/>
<path d="M266.464 47.4442C265.935 47.4442 265.503 47.2639 265.167 46.9041C264.831 46.5439 264.663 46.0996 264.663 45.5713V38.8729C264.663 38.3446 264.843 37.9003 265.203 37.5404C265.563 37.1802 265.983 37 266.464 37H275.467C275.995 37 276.439 37.1802 276.8 37.5404C277.16 37.9003 277.34 38.3446 277.34 38.8729V45.5713C277.34 46.0996 277.16 46.5439 276.8 46.9041C276.439 47.2639 275.995 47.4442 275.467 47.4442H266.464ZM266.464 90.0846C265.983 90.0846 265.563 89.9047 265.203 89.5445C264.843 89.1843 264.663 88.7643 264.663 88.284V54.4308C264.663 53.9027 264.843 53.4706 265.203 53.1343C265.563 52.7983 265.983 52.6301 266.464 52.6301H275.467C275.995 52.6301 276.439 52.7983 276.8 53.1343C277.16 53.4706 277.34 53.9027 277.34 54.4308V88.284C277.34 88.812 277.16 89.2442 276.8 89.5805C276.439 89.9165 275.995 90.0846 275.467 90.0846H266.464Z" fill="black"/>
<path d="M305.263 90.0958C295.083 90.0958 289.993 85.3178 289.993 75.7621V62.4371H284.303C283.822 62.4371 283.402 62.2571 283.042 61.897C282.682 61.5368 282.502 61.1167 282.502 60.6365V54.4419C282.502 53.9139 282.682 53.4817 283.042 53.1454C283.402 52.8094 283.822 52.6413 284.303 52.6413H289.993V40.7567C289.993 40.2287 290.173 39.7965 290.533 39.4602C290.893 39.1242 291.313 38.9561 291.793 38.9561H300.653C301.181 38.9561 301.613 39.1242 301.949 39.4602C302.286 39.7965 302.453 40.2287 302.453 40.7567V52.6413H311.457C311.985 52.6413 312.429 52.8094 312.79 53.1454C313.15 53.4817 313.33 53.9139 313.33 54.4419V60.6365C313.33 61.1645 313.15 61.5967 312.79 61.9329C312.429 62.2689 311.985 62.4371 311.457 62.4371H302.453V74.6819C302.453 76.3625 302.766 77.6351 303.39 78.4994C304.014 79.3637 305.022 79.7959 306.415 79.7959H312.105C312.634 79.7959 313.066 79.9758 313.402 80.336C313.738 80.6962 313.906 81.1404 313.906 81.6685V88.2952C313.906 88.7754 313.738 89.1955 313.402 89.5557C313.066 89.9159 312.634 90.0958 312.105 90.0958H305.263Z" fill="black"/>
<path d="M321.618 90.0958C321.09 90.0958 320.645 89.9276 320.285 89.5917C319.925 89.2554 319.745 88.8232 319.745 88.2952V40.7567C319.745 40.2287 319.925 39.7965 320.285 39.4602C320.645 39.1242 321.09 38.9561 321.618 38.9561H331.342C331.87 38.9561 332.314 39.1242 332.674 39.4602C333.034 39.7965 333.214 40.2287 333.214 40.7567V56.819C335.999 53.5537 339.769 51.9209 344.523 51.9209C347.26 51.9209 349.733 52.5451 351.942 53.7938C354.151 55.0422 355.879 56.891 357.128 59.34C358.376 61.789 359 64.7418 359 68.1995V88.2952C359 88.8232 358.82 89.2554 358.46 89.5917C358.1 89.9276 357.656 90.0958 357.128 90.0958H347.332C346.852 90.0958 346.432 89.9159 346.071 89.5557C345.711 89.1955 345.531 88.7754 345.531 88.2952V68.6316C345.531 66.5186 345.003 64.874 343.947 63.6976C342.89 62.5212 341.377 61.9329 339.409 61.9329C337.488 61.9329 335.976 62.5212 334.871 63.6976C333.767 64.874 333.214 66.5186 333.214 68.6316V88.2952C333.214 88.8232 333.034 89.2554 332.674 89.5917C332.314 89.9276 331.87 90.0958 331.342 90.0958H321.618Z" fill="black"/>
<path d="M390.888 90.48C388.968 90.48 387.368 90.144 386.088 89.472C384.808 88.768 383.784 87.904 383.016 86.88V88.896C383.016 89.216 382.904 89.488 382.68 89.712C382.488 89.904 382.232 90 381.912 90H379.704C379.384 90 379.112 89.904 378.888 89.712C378.696 89.488 378.6 89.216 378.6 88.896V57.024C378.6 56.704 378.696 56.448 378.888 56.256C379.112 56.032 379.384 55.92 379.704 55.92H382.008C382.36 55.92 382.632 56.032 382.824 56.256C383.016 56.448 383.112 56.704 383.112 57.024V68.064C383.912 67.072 384.936 66.24 386.184 65.568C387.464 64.896 389.032 64.56 390.888 64.56C392.68 64.56 394.2 64.88 395.448 65.52C396.728 66.128 397.768 66.976 398.568 68.064C399.4 69.152 400.024 70.384 400.44 71.76C400.856 73.136 401.08 74.576 401.112 76.08C401.144 76.592 401.16 77.072 401.16 77.52C401.16 77.968 401.144 78.448 401.112 78.96C401.08 80.496 400.856 81.952 400.44 83.328C400.024 84.704 399.4 85.936 398.568 87.024C397.768 88.08 396.728 88.928 395.448 89.568C394.2 90.176 392.68 90.48 390.888 90.48ZM389.88 86.592C391.544 86.592 392.84 86.24 393.768 85.536C394.728 84.8 395.416 83.856 395.832 82.704C396.248 81.52 396.488 80.256 396.552 78.912C396.584 77.984 396.584 77.056 396.552 76.128C396.488 74.784 396.248 73.536 395.832 72.384C395.416 71.2 394.728 70.256 393.768 69.552C392.84 68.816 391.544 68.448 389.88 68.448C388.376 68.448 387.128 68.8 386.136 69.504C385.144 70.208 384.392 71.104 383.88 72.192C383.4 73.28 383.144 74.384 383.112 75.504C383.08 76.016 383.064 76.64 383.064 77.376C383.064 78.08 383.08 78.688 383.112 79.2C383.176 80.384 383.432 81.552 383.88 82.704C384.36 83.824 385.08 84.752 386.04 85.488C387.032 86.224 388.312 86.592 389.88 86.592ZM417.035 90.48C413.739 90.48 411.115 89.472 409.163 87.456C407.211 85.408 406.139 82.624 405.947 79.104C405.915 78.688 405.899 78.16 405.899 77.52C405.899 76.848 405.915 76.304 405.947 75.888C406.075 73.616 406.603 71.632 407.531 69.936C408.459 68.208 409.723 66.88 411.323 65.952C412.955 65.024 414.859 64.56 417.035 64.56C419.467 64.56 421.499 65.072 423.131 66.096C424.795 67.12 426.059 68.576 426.923 70.464C427.787 72.352 428.219 74.56 428.219 77.088V77.904C428.219 78.256 428.107 78.528 427.883 78.72C427.691 78.912 427.435 79.008 427.115 79.008H410.507C410.507 79.04 410.507 79.104 410.507 79.2C410.507 79.296 410.507 79.376 410.507 79.44C410.571 80.752 410.859 81.984 411.371 83.136C411.883 84.256 412.619 85.168 413.579 85.872C414.539 86.576 415.691 86.928 417.035 86.928C418.187 86.928 419.147 86.752 419.915 86.4C420.683 86.048 421.307 85.664 421.787 85.248C422.267 84.8 422.587 84.464 422.747 84.24C423.035 83.824 423.259 83.584 423.419 83.52C423.579 83.424 423.835 83.376 424.187 83.376H426.491C426.811 83.376 427.067 83.472 427.259 83.664C427.483 83.824 427.579 84.064 427.547 84.384C427.515 84.864 427.259 85.456 426.779 86.16C426.299 86.832 425.611 87.504 424.715 88.176C423.819 88.848 422.731 89.408 421.451 89.856C420.171 90.272 418.699 90.48 417.035 90.48ZM410.507 75.696H423.659V75.552C423.659 74.112 423.387 72.832 422.843 71.712C422.331 70.592 421.579 69.712 420.587 69.072C419.595 68.4 418.411 68.064 417.035 68.064C415.659 68.064 414.475 68.4 413.483 69.072C412.523 69.712 411.787 70.592 411.275 71.712C410.763 72.832 410.507 74.112 410.507 75.552V75.696ZM443.562 90C441.77 90 440.314 89.664 439.194 88.992C438.074 88.288 437.258 87.312 436.746 86.064C436.234 84.784 435.978 83.28 435.978 81.552V68.88H432.234C431.914 68.88 431.642 68.784 431.418 68.592C431.226 68.368 431.13 68.096 431.13 67.776V66.144C431.13 65.824 431.226 65.568 431.418 65.376C431.642 65.152 431.914 65.04 432.234 65.04H435.978V57.024C435.978 56.704 436.074 56.448 436.266 56.256C436.49 56.032 436.762 55.92 437.082 55.92H439.338C439.658 55.92 439.914 56.032 440.106 56.256C440.33 56.448 440.442 56.704 440.442 57.024V65.04H446.394C446.714 65.04 446.97 65.152 447.162 65.376C447.386 65.568 447.498 65.824 447.498 66.144V67.776C447.498 68.096 447.386 68.368 447.162 68.592C446.97 68.784 446.714 68.88 446.394 68.88H440.442V81.216C440.442 82.72 440.698 83.904 441.21 84.768C441.722 85.632 442.634 86.064 443.946 86.064H446.874C447.194 86.064 447.45 86.176 447.642 86.4C447.866 86.592 447.978 86.848 447.978 87.168V88.896C447.978 89.216 447.866 89.488 447.642 89.712C447.45 89.904 447.194 90 446.874 90H443.562ZM459.528 90.48C457.928 90.48 456.472 90.16 455.16 89.52C453.848 88.88 452.792 88.016 451.992 86.928C451.192 85.84 450.792 84.608 450.792 83.232C450.792 81.024 451.688 79.264 453.48 77.952C455.272 76.64 457.608 75.776 460.488 75.36L467.64 74.352V72.96C467.64 71.424 467.192 70.224 466.296 69.36C465.432 68.496 464.008 68.064 462.024 68.064C460.584 68.064 459.416 68.352 458.52 68.928C457.656 69.504 457.048 70.24 456.696 71.136C456.504 71.616 456.168 71.856 455.688 71.856H453.528C453.176 71.856 452.904 71.76 452.712 71.568C452.552 71.344 452.472 71.088 452.472 70.8C452.472 70.32 452.648 69.728 453 69.024C453.384 68.32 453.96 67.632 454.728 66.96C455.496 66.288 456.472 65.728 457.656 65.28C458.872 64.8 460.344 64.56 462.072 64.56C463.992 64.56 465.608 64.816 466.92 65.328C468.232 65.808 469.256 66.464 469.992 67.296C470.76 68.128 471.304 69.072 471.624 70.128C471.976 71.184 472.152 72.256 472.152 73.344V88.896C472.152 89.216 472.04 89.488 471.816 89.712C471.624 89.904 471.368 90 471.048 90H468.84C468.488 90 468.216 89.904 468.024 89.712C467.832 89.488 467.736 89.216 467.736 88.896V86.832C467.32 87.408 466.76 87.984 466.056 88.56C465.352 89.104 464.472 89.568 463.416 89.952C462.36 90.304 461.064 90.48 459.528 90.48ZM460.536 86.88C461.848 86.88 463.048 86.608 464.136 86.064C465.224 85.488 466.072 84.608 466.68 83.424C467.32 82.24 467.64 80.752 467.64 78.96V77.616L462.072 78.432C459.8 78.752 458.088 79.296 456.936 80.064C455.784 80.8 455.208 81.744 455.208 82.896C455.208 83.792 455.464 84.544 455.976 85.152C456.52 85.728 457.192 86.16 457.992 86.448C458.824 86.736 459.672 86.88 460.536 86.88Z" fill="black"/>
</svg>
